<svg width="120" height="32" viewBox="0 0 120 32" fill="none" xmlns="http://www.w3.org/2000/svg">
<path d="M35.7216 24V6.54545H47.0739V9.19602H38.8835V13.9347H46.4858V16.5852H38.8835V21.3494H47.142V24H35.7216ZM60.5099 14.3693L57.6974 14.6761C57.6179 14.392 57.4787 14.125 57.2798 13.875C57.0866 13.625 56.8253 13.4233 56.4957 13.2699C56.1662 13.1165 55.7628 13.0398 55.2855 13.0398C54.6435 13.0398 54.1037 13.179 53.6662 13.4574C53.2344 13.7358 53.0213 14.0966 53.027 14.5398C53.0213 14.9205 53.1605 15.2301 53.4446 15.4688C53.7344 15.7074 54.2116 15.9034 54.8764 16.0568L57.1094 16.5341C58.348 16.8011 59.2685 17.2244 59.8707 17.804C60.4787 18.3835 60.7855 19.142 60.7912 20.0795C60.7855 20.9034 60.544 21.6307 60.0668 22.2614C59.5952 22.8864 58.9389 23.375 58.098 23.7273C57.2571 24.0795 56.2912 24.2557 55.2003 24.2557C53.598 24.2557 52.3082 23.9205 51.331 23.25C50.3537 22.5739 49.7713 21.6335 49.5838 20.429L52.5923 20.1392C52.7287 20.7301 53.0185 21.1761 53.4616 21.4773C53.9048 21.7784 54.4815 21.929 55.1918 21.929C55.9247 21.929 56.5128 21.7784 56.956 21.4773C57.4048 21.1761 57.6293 20.804 57.6293 20.3608C57.6293 19.9858 57.4844 19.6761 57.1946 19.4318C56.9105 19.1875 56.4673 19 55.8651 18.8693L53.6321 18.4006C52.3764 18.1392 51.4474 17.6989 50.8452 17.0795C50.2429 16.4545 49.9446 15.6648 49.9503 14.7102C49.9446 13.9034 50.1634 13.2045 50.6065 12.6136C51.0554 12.017 51.6776 11.5568 52.473 11.233C53.2741 10.9034 54.1974 10.7386 55.2429 10.7386C56.777 10.7386 57.9844 11.0653 58.8651 11.7188C59.7514 12.3722 60.2997 13.2557 60.5099 14.3693ZM69.8722 10.9091V13.2955H62.3466V10.9091H69.8722ZM64.2045 7.77273H67.2898V20.0625C67.2898 20.4773 67.3523 20.7955 67.4773 21.017C67.608 21.233 67.7784 21.3807 67.9886 21.4602C68.1989 21.5398 68.4318 21.5795 68.6875 21.5795C68.8807 21.5795 69.0568 21.5653 69.2159 21.5369C69.3807 21.5085 69.5057 21.483 69.5909 21.4602L70.1108 23.8722C69.946 23.929 69.7102 23.9915 69.4034 24.0597C69.1023 24.1278 68.733 24.1676 68.2955 24.179C67.5227 24.2017 66.8267 24.0852 66.2074 23.8295C65.5881 23.5682 65.0966 23.1648 64.733 22.6193C64.375 22.0739 64.1989 21.392 64.2045 20.5739V7.77273ZM78.022 24.2557C76.7436 24.2557 75.6357 23.9744 74.6982 23.4119C73.7607 22.8494 73.0334 22.0625 72.5163 21.0511C72.005 20.0398 71.7493 18.858 71.7493 17.5057C71.7493 16.1534 72.005 14.9687 72.5163 13.9517C73.0334 12.9347 73.7607 12.1449 74.6982 11.5824C75.6357 11.0199 76.7436 10.7386 78.022 10.7386C79.3004 10.7386 80.4084 11.0199 81.3459 11.5824C82.2834 12.1449 83.0078 12.9347 83.5192 13.9517C84.0362 14.9687 84.2947 16.1534 84.2947 17.5057C84.2947 18.858 84.0362 20.0398 83.5192 21.0511C83.0078 22.0625 82.2834 22.8494 81.3459 23.4119C80.4084 23.9744 79.3004 24.2557 78.022 24.2557ZM78.0391 21.7841C78.7322 21.7841 79.3118 21.5937 79.7777 21.2131C80.2436 20.8267 80.5902 20.3097 80.8175 19.6619C81.0504 19.0142 81.1669 18.2926 81.1669 17.4972C81.1669 16.696 81.0504 15.9716 80.8175 15.3239C80.5902 14.6705 80.2436 14.1506 79.7777 13.7642C79.3118 13.3778 78.7322 13.1847 78.0391 13.1847C77.3288 13.1847 76.7379 13.3778 76.2663 13.7642C75.8004 14.1506 75.451 14.6705 75.218 15.3239C74.9908 15.9716 74.8771 16.696 74.8771 17.4972C74.8771 18.2926 74.9908 19.0142 75.218 19.6619C75.451 20.3097 75.8004 20.8267 76.2663 21.2131C76.7379 21.5937 77.3288 21.7841 78.0391 21.7841ZM89.7259 19.892L89.7173 16.1676H90.2116L94.9162 10.9091H98.5213L92.7344 17.3523H92.0952L89.7259 19.892ZM86.9134 24V6.54545H89.9986V24H86.9134ZM95.1293 24L90.8679 18.0426L92.9474 15.8693L98.8196 24H95.1293ZM100.577 24V10.9091H103.663V24H100.577ZM102.129 9.05114C101.64 9.05114 101.219 8.8892 100.867 8.56534C100.515 8.23579 100.339 7.84091 100.339 7.38068C100.339 6.91477 100.515 6.51989 100.867 6.19602C101.219 5.86648 101.64 5.7017 102.129 5.7017C102.623 5.7017 103.043 5.86648 103.39 6.19602C103.742 6.51989 103.918 6.91477 103.918 7.38068C103.918 7.84091 103.742 8.23579 103.39 8.56534C103.043 8.8892 102.623 9.05114 102.129 9.05114ZM109.92 16.3295V24H106.835V10.9091H109.784V13.1335H109.938C110.239 12.4006 110.719 11.8182 111.378 11.3864C112.043 10.9545 112.864 10.7386 113.841 10.7386C114.744 10.7386 115.531 10.9318 116.202 11.3182C116.878 11.7045 117.401 12.2642 117.77 12.9972C118.145 13.7301 118.33 14.6193 118.324 15.6648V24H115.239V16.142C115.239 15.267 115.011 14.5824 114.557 14.0881C114.108 13.5937 113.486 13.3466 112.69 13.3466C112.151 13.3466 111.67 13.4659 111.25 13.7045C110.835 13.9375 110.509 14.2756 110.27 14.7188C110.037 15.1619 109.92 15.6989 109.92 16.3295Z" fill="#2F0D68"/>
<path d="M14.6667 28.9733C15.0721 29.2074 15.5319 29.3306 16 29.3306C16.4681 29.3306 16.9279 29.2074 17.3333 28.9733L26.6667 23.64C27.0717 23.4062 27.408 23.07 27.6421 22.6651C27.8761 22.2603 27.9995 21.801 28 21.3333V10.6667C27.9995 10.199 27.8761 9.73975 27.6421 9.33489C27.408 8.93002 27.0717 8.59382 26.6667 8.36L17.3333 3.02667C16.9279 2.79262 16.4681 2.6694 16 2.6694C15.5319 2.6694 15.0721 2.79262 14.6667 3.02667L5.33333 8.36C4.92835 8.59382 4.59197 8.93002 4.35795 9.33489C4.12392 9.73975 4.00048 10.199 4 10.6667V21.3333C4.00048 21.801 4.12392 22.2603 4.35795 22.6651C4.59197 23.07 4.92835 23.4062 5.33333 23.64L14.6667 28.9733Z" stroke="#2F0D68" stroke-width="2" stroke-linecap="round" stroke-linejoin="round"/>
<path d="M16 29.3333V16" stroke="#2F0D68" stroke-width="2" stroke-linecap="round" stroke-linejoin="round"/>
<path d="M4.38666 9.33334L16 16L27.6133 9.33334" stroke="#2F0D68" stroke-width="2" stroke-linecap="round" stroke-linejoin="round"/>
<path d="M10 5.69334L22 12.56" stroke="#2F0D68" stroke-width="2" stroke-linecap="round" stroke-linejoin="round"/>
</svg>
